<?xml version="1.0" encoding="utf-8"?>
<svg xmlns="http://www.w3.org/2000/svg" viewBox="0 0 48 48" width="144" height="144">
  <path d="M10.5 6C7.462 6 5 8.462 5 11.5L5 36.5C5 39.538 7.462 42 10.5 42L37.5 42C40.538 42 43 39.538 43 36.5L43 11.5C43 8.462 40.538 6 37.5 6L10.5 6 z M 8 16L40 16L40 36.5C40 37.881 38.881 39 37.5 39L10.5 39C9.119 39 8 37.881 8 36.5L8 16 z M 25.498047 18.978516 A 1.50015 1.50015 0 0 0 24.033203 20.185547L21.033203 34.185547 A 1.50015 1.50015 0 1 0 23.966797 34.814453L26.966797 20.814453 A 1.50015 1.50015 0 0 0 25.498047 18.978516 z M 30.484375 21.984375 A 1.50015 1.50015 0 0 0 29.439453 24.560547L32.378906 27.5L29.439453 30.439453 A 1.50015 1.50015 0 1 0 31.560547 32.560547L35.560547 28.560547 A 1.50015 1.50015 0 0 0 35.560547 26.439453L31.560547 22.439453 A 1.50015 1.50015 0 0 0 30.484375 21.984375 z M 17.470703 21.986328 A 1.50015 1.50015 0 0 0 16.439453 22.439453L12.439453 26.439453 A 1.50015 1.50015 0 0 0 12.439453 28.560547L16.439453 32.560547 A 1.50015 1.50015 0 1 0 18.560547 30.439453L15.621094 27.5L18.560547 24.560547 A 1.50015 1.50015 0 0 0 17.470703 21.986328 z" fill="#A6A6A6" />
</svg>