<?xml version="1.0" encoding="utf-8"?>
<svg xmlns="http://www.w3.org/2000/svg" viewBox="0 0 48 48" width="48" height="48">
  <path d="M35.5,8h-3.551C31.697,5.756,29.81,4,27.5,4h-7c-2.31,0-4.197,1.756-4.449,4H12.5C10.019,8,8,10.019,8,12.5v27c0,2.481,2.019,4.5,4.5,4.5h23c2.481,0,4.5-2.019,4.5-4.5v-27C40,10.019,37.981,8,35.5,8z M16.5,35c-0.828,0-1.5-0.672-1.5-1.5s0.672-1.5,1.5-1.5s1.5,0.672,1.5,1.5S17.328,35,16.5,35z M16.5,29c-0.828,0-1.5-0.672-1.5-1.5s0.672-1.5,1.5-1.5s1.5,0.672,1.5,1.5S17.328,29,16.5,29z M16.5,23c-0.828,0-1.5-0.672-1.5-1.5s0.672-1.5,1.5-1.5s1.5,0.672,1.5,1.5S17.328,23,16.5,23z M19,8.5C19,7.673,19.673,7,20.5,7h7C28.327,7,29,7.673,29,8.5S28.327,10,27.5,10h-7C19.673,10,19,9.327,19,8.5z M31.5,35h-9c-0.829,0-1.5-0.672-1.5-1.5s0.671-1.5,1.5-1.5h9c0.829,0,1.5,0.672,1.5,1.5S32.329,35,31.5,35z M31.5,29h-9c-0.829,0-1.5-0.672-1.5-1.5s0.671-1.5,1.5-1.5h9c0.829,0,1.5,0.672,1.5,1.5S32.329,29,31.5,29z M31.5,23h-9c-0.829,0-1.5-0.672-1.5-1.5s0.671-1.5,1.5-1.5h9c0.829,0,1.5,0.672,1.5,1.5S32.329,23,31.5,23z" fill="#FFFFFF" />
</svg>