<?xml version="1.0" encoding="utf-8"?>
<svg xmlns="http://www.w3.org/2000/svg" viewBox="0 0 48 48" width="144" height="144">
  <path d="M24 4.0175781C14.084959 4.0175781 6 12.007385 6 21.841797C6 33.813524 16.836186 40.762923 20.957031 44.742188C22.643783 46.36994 25.356217 46.36994 27.042969 44.742188L27.044922 44.742188C31.16456 40.763137 42 33.813524 42 21.841797C42 12.007385 33.915041 4.0175781 24 4.0175781 z M 18.5 16C19.33 16 20 16.67 20 17.5L20 28.5C20 29.33 19.33 30 18.5 30C17.67 30 17 29.33 17 28.5L17 17.5C17 16.67 17.67 16 18.5 16 z M 24.5 16L28 16C30.76 16 33 18.24 33 21C33 23.76 30.76 26 28 26L26 26L26 28.5C26 29.33 25.33 30 24.5 30C23.67 30 23 29.33 23 28.5L23 17.5C23 16.67 23.67 16 24.5 16 z M 26 19L26 23L28 23C28.1375 23 28.272461 22.985742 28.402344 22.958984C28.532227 22.932227 28.657812 22.892578 28.777344 22.841797C28.896875 22.791016 29.010742 22.72832 29.117188 22.65625C29.223633 22.58418 29.321484 22.502734 29.412109 22.412109C29.502734 22.321484 29.58418 22.223633 29.65625 22.117188C29.72832 22.010742 29.791016 21.896875 29.841797 21.777344C29.943359 21.538281 30 21.275 30 21C30 20.725 29.943359 20.461719 29.841797 20.222656C29.791016 20.103125 29.72832 19.989258 29.65625 19.882812C29.58418 19.776367 29.502734 19.678516 29.412109 19.587891C29.321484 19.497266 29.223633 19.41582 29.117188 19.34375C28.797852 19.127539 28.4125 19 28 19L26 19 z" fill="#A6A6A6" />
</svg>