<?xml version="1.0" encoding="utf-8"?>
<svg xmlns="http://www.w3.org/2000/svg" viewBox="0 0 30 30" width="60" height="60">
  <path d="M15 2C11.698375 2 9 4.6983746 9 8L9 11.304688C7.1627428 12.952391 6 15.337544 6 18C6 22.971 10.029 27 15 27C19.971 27 24 22.971 24 18C24 15.337544 22.837257 12.952391 21 11.304688L21 8C21 4.8243068 18.483967 2.2673277 15.355469 2.0722656 A 1.0001 1.0001 0 0 0 15 2 z M 15 4C17.220375 4 19 5.7796254 19 8L19 9.9453125C17.794081 9.3453537 16.438486 9 15 9C13.561514 9 12.205919 9.3453537 11 9.9453125L11 8C11 5.7796254 12.779625 4 15 4 z M 15 16C16.105 16 17 16.895 17 18C17 18.738 16.595 19.375656 16 19.722656L16 21C16 21.552 15.552 22 15 22C14.448 22 14 21.552 14 21L14 19.722656C13.405 19.376656 13 18.739 13 18C13 16.895 13.895 16 15 16 z" fill="#43C0DB" />
</svg>