<?xml version="1.0" encoding="utf-8"?>
<svg xmlns="http://www.w3.org/2000/svg" viewBox="0 0 26 26" width="208" height="208">
  <path d="M21.125 0L4.875 0C2.183594 0 0 2.183594 0 4.875L0 21.125C0 23.816406 2.183594 26 4.875 26L21.125 26C23.816406 26 26 23.816406 26 21.125L26 4.875C26 2.183594 23.816406 0 21.125 0 Z M 21 19C21 19.554688 20.554688 20 20 20L18 20L18 16.5C18 16.222656 17.777344 16 17.5 16C17.222656 16 17 16.222656 17 16.5L17 20L15 20L15 16.5C15 16.222656 14.777344 16 14.5 16C14.222656 16 14 16.222656 14 16.5L14 20L12 20L12 16.5C12 16.222656 11.777344 16 11.5 16C11.222656 16 11 16.222656 11 16.5L11 20L9 20L9 16.5C9 16.222656 8.777344 16 8.5 16C8.222656 16 8 16.222656 8 16.5L8 20L6 20C5.445313 20 5 19.554688 5 19L5 10C5 9.445313 5.445313 9 6 9L10 9L10 7C10 6.445313 10.445313 6 11 6L15 6C15.554688 6 16 6.445313 16 7L16 9L20 9C20.554688 9 21 9.445313 21 10Z" fill="#A6A6A6" />
</svg>