<?xml version="1.0" encoding="utf-8"?>
<svg xmlns="http://www.w3.org/2000/svg" viewBox="0 0 64 64" width="128" height="128">
  <path d="M5 4C4.447 4 4 4.447 4 5L4 11C4 11.553 4.447 12 5 12C5.553 12 6 11.553 6 11L6 6L11 6C11.553 6 12 5.553 12 5C12 4.447 11.553 4 11 4L5 4 z M 53 4C52.447 4 52 4.447 52 5C52 5.553 52.447 6 53 6L58 6L58 11C58 11.553 58.447 12 59 12C59.553 12 60 11.553 60 11L60 5C60 4.447 59.553 4 59 4L53 4 z M 10 10C9.447 10 9 10.447 9 11L9 26L5 26C4.447 26 4 26.447 4 27L4 35C4 35.553 4.447 36 5 36L9 36L9 53C9 53.553 9.447 54 10 54C10.553 54 11 53.553 11 53L11 36L13 36L13 53C13 53.553 13.447 54 14 54L18 54C18.553 54 19 53.553 19 53L19 36L21 36L21 53C21 53.553 21.447 54 22 54C22.553 54 23 53.553 23 53L23 36L25 36L25 53C25 53.553 25.447 54 26 54C26.553 54 27 53.553 27 53L27 36L29 36L29 53C29 53.553 29.447 54 30 54L34 54C34.553 54 35 53.553 35 53L35 36L37 36L37 53C37 53.553 37.447 54 38 54C38.553 54 39 53.553 39 53L39 36L41 36L41 53C41 53.553 41.447 54 42 54C42.553 54 43 53.553 43 53L43 36L45 36L45 53C45 53.553 45.447 54 46 54C46.553 54 47 53.553 47 53L47 36L49 36L49 53C49 53.553 49.447 54 50 54L54 54C54.553 54 55 53.553 55 53L55 36L59 36C59.553 36 60 35.553 60 35L60 27C60 26.447 59.553 26 59 26L55 26L55 11C55 10.447 54.553 10 54 10L50 10C49.447 10 49 10.447 49 11L49 26L47 26L47 11C47 10.447 46.553 10 46 10C45.447 10 45 10.447 45 11L45 26L43 26L43 11C43 10.447 42.553 10 42 10C41.447 10 41 10.447 41 11L41 26L39 26L39 11C39 10.447 38.553 10 38 10C37.447 10 37 10.447 37 11L37 26L35 26L35 11C35 10.447 34.553 10 34 10L30 10C29.447 10 29 10.447 29 11L29 26L27 26L27 11C27 10.447 26.553 10 26 10C25.447 10 25 10.447 25 11L25 26L23 26L23 11C23 10.447 22.553 10 22 10C21.447 10 21 10.447 21 11L21 26L19 26L19 11C19 10.447 18.553 10 18 10L14 10C13.447 10 13 10.447 13 11L13 26L11 26L11 11C11 10.447 10.553 10 10 10 z M 6 28L58 28L58 34L6 34L6 28 z M 5 52C4.447 52 4 52.447 4 53L4 59C4 59.553 4.447 60 5 60L11 60C11.553 60 12 59.553 12 59C12 58.447 11.553 58 11 58L6 58L6 53C6 52.447 5.553 52 5 52 z M 59 52C58.447 52 58 52.447 58 53L58 58L53 58C52.447 58 52 58.447 52 59C52 59.553 52.447 60 53 60L59 60C59.553 60 60 59.553 60 59L60 53C60 52.447 59.553 52 59 52 z" fill="#FDFDFD" />
</svg>