<?xml version="1.0" encoding="utf-8"?>
<svg xmlns="http://www.w3.org/2000/svg" viewBox="0 0 128 128" width="128" height="128">
  <path d="M4 32c1.7 0 3-1.3 3-3V14c0-3.9 3.1-7 7-7h15c1.7 0 3-1.3 3-3s-1.3-3-3-3H14C6.8 1 1 6.8 1 14v15C1 30.7 2.3 32 4 32zM14 127h15c1.7 0 3-1.3 3-3s-1.3-3-3-3H14c-3.9 0-7-3.1-7-7V99c0-1.7-1.3-3-3-3s-3 1.3-3 3v15C1 121.2 6.8 127 14 127zM124 96c-1.7 0-3 1.3-3 3v15c0 3.9-3.1 7-7 7H99c-1.7 0-3 1.3-3 3s1.3 3 3 3h15c7.2 0 13-5.8 13-13V99C127 97.3 125.7 96 124 96zM114 1H99c-1.7 0-3 1.3-3 3s1.3 3 3 3h15c3.9 0 7 3.1 7 7v15c0 1.7 1.3 3 3 3s3-1.3 3-3V14C127 6.8 121.2 1 114 1zM21 31v71c0 1.7 1.3 3 3 3s3-1.3 3-3V31c0-1.7-1.3-3-3-3S21 29.3 21 31zM38 90c1.7 0 3-1.3 3-3V31c0-1.7-1.3-3-3-3s-3 1.3-3 3v56C35 88.7 36.3 90 38 90zM52 90c1.7 0 3-1.3 3-3V31c0-1.7-1.3-3-3-3s-3 1.3-3 3v56C49 88.7 50.3 90 52 90zM66 90c1.7 0 3-1.3 3-3V31c0-1.7-1.3-3-3-3s-3 1.3-3 3v56C63 88.7 64.3 90 66 90zM90 90c1.7 0 3-1.3 3-3V31c0-1.7-1.3-3-3-3s-3 1.3-3 3v56C87 88.7 88.3 90 90 90zM107 102V31c0-1.7-1.3-3-3-3s-3 1.3-3 3v71c0 1.7 1.3 3 3 3S107 103.7 107 102z" fill="#FFFFFF" />
</svg>