<?xml version="1.0" encoding="utf-8"?>
<svg xmlns="http://www.w3.org/2000/svg" viewBox="0 0 50 50" width="100" height="100">
  <path d="M14 11.528c0-.414-.287-1.962-.79-3.528H4.765C4.275 9.559 4 11.1 4 11.528V18h10V11.528zM38 11.528c0-.414-.287-1.962-.79-3.528h-8.445C28.275 9.559 28 11.1 28 11.528V18h10V11.528zM26 11.528c0-.414-.287-1.962-.79-3.528h-8.445C16.275 9.559 16 11.1 16 11.528V18h10V11.528zM48 20H2c-.552 0-1 .447-1 1v4c0 .553.448 1 1 1h46c.552 0 1-.447 1-1v-4C49 20.447 48.552 20 48 20zM40 28H30c-.552 0-1 .447-1 1v4h12v-4C41 28.447 40.552 28 40 28zM36 35v5h10v-4c0-.553-.448-1-1-1h-4H36zM15 35H5c-.552 0-1 .447-1 1v4h12v-4C16 35.447 15.552 35 15 35zM48 42H2c-.552 0-1 .447-1 1v4c0 .553.448 1 1 1h46c.552 0 1-.447 1-1v-4C49 42.447 48.552 42 48 42zM25 35c-.552 0-1 .447-1 1v4h10v-5h-5H25zM6 6h6c.552 0 1-.448 1-1V3c0-.552-.448-1-1-1H6C5.448 2 5 2.448 5 3v2C5 5.552 5.448 6 6 6zM18 6h6c.552 0 1-.448 1-1V3c0-.552-.448-1-1-1h-6c-.552 0-1 .448-1 1v2C17 5.552 17.448 6 18 6zM30 6h6c.552 0 1-.448 1-1V3c0-.552-.448-1-1-1h-6c-.552 0-1 .448-1 1v2C29 5.552 29.448 6 30 6z" fill="#FFFFFF" />
</svg>