<svg xmlns="http://www.w3.org/2000/svg" xmlns:xlink="http://www.w3.org/1999/xlink" width="1536" zoomAndPan="magnify" viewBox="0 0 1152 647.999998" height="864" preserveAspectRatio="xMidYMid meet" version="1.0"><defs><g/></defs><g fill="#7cd3e7" fill-opacity="1"><g transform="translate(363.372424, 403.085598)"><g><path d="M 19.5625 -14.953125 C 21.15625 -13.210938 21.953125 -11.078125 21.953125 -8.546875 C 21.953125 -6.015625 21.15625 -3.875 19.5625 -2.125 C 17.96875 -0.375 15.9375 0.5 13.46875 0.5 C 11.207031 0.5 9.347656 -0.207031 7.890625 -1.625 L 7.890625 8.65625 L 2 8.65625 L 2 -17.0625 L 7.8125 -17.0625 L 7.8125 -15.140625 L 7.890625 -15.140625 C 9.347656 -16.753906 11.207031 -17.5625 13.46875 -17.5625 C 15.9375 -17.5625 17.96875 -16.691406 19.5625 -14.953125 Z M 14.546875 -5.65625 C 15.316406 -6.40625 15.703125 -7.367188 15.703125 -8.546875 C 15.703125 -9.722656 15.332031 -10.679688 14.59375 -11.421875 C 13.863281 -12.171875 12.898438 -12.546875 11.703125 -12.546875 C 10.554688 -12.546875 9.609375 -12.164062 8.859375 -11.40625 C 8.117188 -10.65625 7.75 -9.703125 7.75 -8.546875 C 7.75 -7.367188 8.128906 -6.40625 8.890625 -5.65625 C 9.660156 -4.90625 10.597656 -4.53125 11.703125 -4.53125 C 12.835938 -4.53125 13.785156 -4.90625 14.546875 -5.65625 Z M 14.546875 -5.65625 "/></g></g></g><g fill="#7cd3e7" fill-opacity="1"><g transform="translate(387.954694, 403.085598)"><g><path d="M 3.15625 -2.109375 C 1.5625 -3.847656 0.765625 -5.984375 0.765625 -8.515625 C 0.765625 -11.046875 1.5625 -13.1875 3.15625 -14.9375 C 4.757812 -16.6875 6.789062 -17.5625 9.25 -17.5625 C 11.507812 -17.5625 13.375 -16.851562 14.84375 -15.4375 L 14.84375 -17.0625 L 20.71875 -17.0625 L 20.71875 0 L 14.90625 0 L 14.90625 -1.921875 L 14.84375 -1.921875 C 13.375 -0.304688 11.507812 0.5 9.25 0.5 C 6.789062 0.5 4.757812 -0.367188 3.15625 -2.109375 Z M 8.15625 -11.40625 C 7.394531 -10.65625 7.015625 -9.691406 7.015625 -8.515625 C 7.015625 -7.335938 7.378906 -6.378906 8.109375 -5.640625 C 8.847656 -4.898438 9.816406 -4.53125 11.015625 -4.53125 C 12.160156 -4.53125 13.101562 -4.90625 13.84375 -5.65625 C 14.59375 -6.40625 14.96875 -7.359375 14.96875 -8.515625 C 14.96875 -9.691406 14.582031 -10.65625 13.8125 -11.40625 C 13.050781 -12.164062 12.117188 -12.546875 11.015625 -12.546875 C 9.878906 -12.546875 8.925781 -12.164062 8.15625 -11.40625 Z M 8.15625 -11.40625 "/></g></g></g><g fill="#7cd3e7" fill-opacity="1"><g transform="translate(412.536965, 403.085598)"><g><path d="M 2 0 L 2 -17.0625 L 7.890625 -17.0625 L 7.890625 -14.609375 L 7.953125 -14.609375 C 7.992188 -14.691406 8.0625 -14.800781 8.15625 -14.9375 C 8.257812 -15.070312 8.476562 -15.304688 8.8125 -15.640625 C 9.144531 -15.972656 9.5 -16.269531 9.875 -16.53125 C 10.257812 -16.800781 10.75 -17.039062 11.34375 -17.25 C 11.9375 -17.457031 12.546875 -17.5625 13.171875 -17.5625 C 13.816406 -17.5625 14.445312 -17.472656 15.0625 -17.296875 C 15.6875 -17.117188 16.144531 -16.941406 16.4375 -16.765625 L 16.90625 -16.5 L 14.4375 -11.515625 C 13.707031 -12.128906 12.6875 -12.4375 11.375 -12.4375 C 10.664062 -12.4375 10.054688 -12.28125 9.546875 -11.96875 C 9.035156 -11.664062 8.675781 -11.289062 8.46875 -10.84375 C 8.257812 -10.394531 8.109375 -10.015625 8.015625 -9.703125 C 7.929688 -9.398438 7.890625 -9.160156 7.890625 -8.984375 L 7.890625 0 Z M 2 0 "/></g></g></g><g fill="#7cd3e7" fill-opacity="1"><g transform="translate(430.965584, 403.085598)"><g><path d="M 3 -17.0625 L 3 -23.421875 L 8.875 -23.421875 L 8.875 -17.0625 L 12.46875 -17.0625 L 12.46875 -12.578125 L 8.875 -12.578125 L 8.875 -7.15625 C 8.875 -5.582031 9.320312 -4.796875 10.21875 -4.796875 C 10.4375 -4.796875 10.664062 -4.835938 10.90625 -4.921875 C 11.15625 -5.015625 11.347656 -5.101562 11.484375 -5.1875 L 11.671875 -5.328125 L 13.140625 -0.5625 C 11.878906 0.144531 10.4375 0.5 8.8125 0.5 C 7.707031 0.5 6.753906 0.304688 5.953125 -0.078125 C 5.148438 -0.472656 4.546875 -0.992188 4.140625 -1.640625 C 3.734375 -2.296875 3.441406 -2.984375 3.265625 -3.703125 C 3.085938 -4.429688 3 -5.203125 3 -6.015625 L 3 -12.578125 L 0.53125 -12.578125 L 0.53125 -17.0625 Z M 3 -17.0625 "/></g></g></g><g fill="#7cd3e7" fill-opacity="1"><g transform="translate(445.968111, 403.085598)"><g/></g></g><g fill="#7cd3e7" fill-opacity="1"><g transform="translate(456.912537, 403.085598)"><g><path d="M 3.609375 -2.03125 C 1.710938 -3.71875 0.765625 -5.878906 0.765625 -8.515625 C 0.765625 -11.148438 1.75 -13.316406 3.71875 -15.015625 C 5.695312 -16.710938 8.140625 -17.5625 11.046875 -17.5625 C 13.898438 -17.5625 16.304688 -16.707031 18.265625 -15 C 20.234375 -13.289062 21.21875 -11.128906 21.21875 -8.515625 C 21.21875 -5.898438 20.257812 -3.742188 18.34375 -2.046875 C 16.425781 -0.347656 13.992188 0.5 11.046875 0.5 C 7.984375 0.5 5.503906 -0.34375 3.609375 -2.03125 Z M 8.15625 -11.40625 C 7.394531 -10.65625 7.015625 -9.691406 7.015625 -8.515625 C 7.015625 -7.335938 7.378906 -6.378906 8.109375 -5.640625 C 8.847656 -4.898438 9.816406 -4.53125 11.015625 -4.53125 C 12.160156 -4.53125 13.101562 -4.90625 13.84375 -5.65625 C 14.59375 -6.40625 14.96875 -7.359375 14.96875 -8.515625 C 14.96875 -9.691406 14.582031 -10.65625 13.8125 -11.40625 C 13.050781 -12.164062 12.117188 -12.546875 11.015625 -12.546875 C 9.878906 -12.546875 8.925781 -12.164062 8.15625 -11.40625 Z M 8.15625 -11.40625 "/></g></g></g><g fill="#7cd3e7" fill-opacity="1"><g transform="translate(480.76303, 403.085598)"><g><path d="M 3 -17.0625 L 3 -20.6875 C 3.019531 -23.238281 3.613281 -25.28125 4.78125 -26.8125 C 5.957031 -28.34375 7.59375 -29.109375 9.6875 -29.109375 C 10.570312 -29.109375 11.414062 -28.976562 12.21875 -28.71875 C 13.03125 -28.46875 13.613281 -28.207031 13.96875 -27.9375 L 14.53125 -27.578125 L 12.46875 -23.421875 C 11.9375 -23.734375 11.351562 -23.890625 10.71875 -23.890625 C 9.976562 -23.890625 9.484375 -23.640625 9.234375 -23.140625 C 8.992188 -22.640625 8.875 -21.769531 8.875 -20.53125 L 8.875 -17.0625 L 12.8125 -17.0625 L 12.8125 -12.578125 L 8.875 -12.578125 L 8.875 0 L 3 0 L 3 -12.578125 L 0.53125 -12.578125 L 0.53125 -17.0625 Z M 3 -17.0625 "/></g></g></g><g fill="#7cd3e7" fill-opacity="1"><g transform="translate(495.100288, 403.085598)"><g/></g></g><g fill="#ff3131" fill-opacity="1"><g transform="translate(506.060917, 403.085598)"><g><path d="M 2 0 L 2 -17.0625 L 7.890625 -17.0625 L 7.890625 -15.265625 L 7.953125 -15.265625 C 9.484375 -16.796875 11.113281 -17.5625 12.84375 -17.5625 C 14.082031 -17.5625 15.242188 -17.304688 16.328125 -16.796875 C 17.421875 -16.285156 18.242188 -15.5 18.796875 -14.4375 C 20.523438 -16.519531 22.410156 -17.5625 24.453125 -17.5625 C 26.265625 -17.5625 27.828125 -17.050781 29.140625 -16.03125 C 30.453125 -15.007812 31.109375 -13.414062 31.109375 -11.25 L 31.109375 0 L 25.21875 0 L 25.21875 -9.640625 C 25.21875 -10.554688 24.96875 -11.316406 24.46875 -11.921875 C 23.96875 -12.535156 23.21875 -12.84375 22.21875 -12.84375 C 21.351562 -12.84375 20.691406 -12.582031 20.234375 -12.0625 C 19.785156 -11.539062 19.539062 -10.910156 19.5 -10.171875 L 19.5 0 L 13.609375 0 L 13.609375 -9.640625 C 13.609375 -10.554688 13.359375 -11.316406 12.859375 -11.921875 C 12.359375 -12.535156 11.609375 -12.84375 10.609375 -12.84375 C 9.703125 -12.84375 9.019531 -12.554688 8.5625 -11.984375 C 8.113281 -11.421875 7.890625 -10.753906 7.890625 -9.984375 L 7.890625 0 Z M 2 0 "/></g></g></g><g fill="#7cd3e7" fill-opacity="1"><g transform="translate(540.696874, 403.085598)"><g><path d="M 9.421875 -17.5625 C 10.390625 -17.5625 11.347656 -17.453125 12.296875 -17.234375 C 13.253906 -17.015625 13.96875 -16.789062 14.4375 -16.5625 L 15.140625 -16.234375 L 13.203125 -12.375 C 11.867188 -13.082031 10.609375 -13.4375 9.421875 -13.4375 C 8.753906 -13.4375 8.28125 -13.363281 8 -13.21875 C 7.71875 -13.070312 7.578125 -12.800781 7.578125 -12.40625 C 7.578125 -12.320312 7.585938 -12.234375 7.609375 -12.140625 C 7.640625 -12.054688 7.6875 -11.972656 7.75 -11.890625 C 7.8125 -11.816406 7.867188 -11.75 7.921875 -11.6875 C 7.984375 -11.632812 8.082031 -11.570312 8.21875 -11.5 C 8.351562 -11.4375 8.457031 -11.390625 8.53125 -11.359375 C 8.613281 -11.328125 8.742188 -11.273438 8.921875 -11.203125 C 9.097656 -11.140625 9.226562 -11.09375 9.3125 -11.0625 C 9.40625 -11.03125 9.554688 -10.976562 9.765625 -10.90625 C 9.972656 -10.84375 10.132812 -10.800781 10.25 -10.78125 C 10.9375 -10.582031 11.535156 -10.359375 12.046875 -10.109375 C 12.554688 -9.867188 13.09375 -9.535156 13.65625 -9.109375 C 14.21875 -8.691406 14.65625 -8.160156 14.96875 -7.515625 C 15.28125 -6.867188 15.4375 -6.140625 15.4375 -5.328125 C 15.4375 -1.441406 12.742188 0.5 7.359375 0.5 C 6.128906 0.5 4.96875 0.3125 3.875 -0.0625 C 2.78125 -0.4375 1.988281 -0.816406 1.5 -1.203125 L 0.765625 -1.796875 L 3.15625 -5.828125 C 3.332031 -5.671875 3.566406 -5.484375 3.859375 -5.265625 C 4.148438 -5.054688 4.671875 -4.769531 5.421875 -4.40625 C 6.171875 -4.039062 6.828125 -3.859375 7.390625 -3.859375 C 8.609375 -3.859375 9.21875 -4.269531 9.21875 -5.09375 C 9.21875 -5.46875 9.0625 -5.757812 8.75 -5.96875 C 8.4375 -6.175781 7.90625 -6.410156 7.15625 -6.671875 C 6.414062 -6.941406 5.835938 -7.191406 5.421875 -7.421875 C 4.359375 -7.972656 3.515625 -8.597656 2.890625 -9.296875 C 2.273438 -9.992188 1.96875 -10.921875 1.96875 -12.078125 C 1.96875 -13.804688 2.632812 -15.148438 3.96875 -16.109375 C 5.3125 -17.078125 7.128906 -17.5625 9.421875 -17.5625 Z M 9.421875 -17.5625 "/></g></g></g><g fill="#7cd3e7" fill-opacity="1"><g transform="translate(558.925898, 403.085598)"><g><path d="M 2 0 L 2 -17.0625 L 7.890625 -17.0625 L 7.890625 -15.265625 L 7.953125 -15.265625 C 9.484375 -16.796875 11.113281 -17.5625 12.84375 -17.5625 C 14.082031 -17.5625 15.242188 -17.304688 16.328125 -16.796875 C 17.421875 -16.285156 18.242188 -15.5 18.796875 -14.4375 C 20.523438 -16.519531 22.410156 -17.5625 24.453125 -17.5625 C 26.265625 -17.5625 27.828125 -17.050781 29.140625 -16.03125 C 30.453125 -15.007812 31.109375 -13.414062 31.109375 -11.25 L 31.109375 0 L 25.21875 0 L 25.21875 -9.640625 C 25.21875 -10.554688 24.96875 -11.316406 24.46875 -11.921875 C 23.96875 -12.535156 23.21875 -12.84375 22.21875 -12.84375 C 21.351562 -12.84375 20.691406 -12.582031 20.234375 -12.0625 C 19.785156 -11.539062 19.539062 -10.910156 19.5 -10.171875 L 19.5 0 L 13.609375 0 L 13.609375 -9.640625 C 13.609375 -10.554688 13.359375 -11.316406 12.859375 -11.921875 C 12.359375 -12.535156 11.609375 -12.84375 10.609375 -12.84375 C 9.703125 -12.84375 9.019531 -12.554688 8.5625 -11.984375 C 8.113281 -11.421875 7.890625 -10.753906 7.890625 -9.984375 L 7.890625 0 Z M 2 0 "/></g></g></g><g fill="#7cd3e7" fill-opacity="1"><g transform="translate(593.553617, 403.085598)"><g><path d="M 3.15625 -2.109375 C 1.5625 -3.847656 0.765625 -5.984375 0.765625 -8.515625 C 0.765625 -11.046875 1.5625 -13.1875 3.15625 -14.9375 C 4.757812 -16.6875 6.789062 -17.5625 9.25 -17.5625 C 11.507812 -17.5625 13.375 -16.851562 14.84375 -15.4375 L 14.84375 -17.0625 L 20.71875 -17.0625 L 20.71875 0 L 14.90625 0 L 14.90625 -1.921875 L 14.84375 -1.921875 C 13.375 -0.304688 11.507812 0.5 9.25 0.5 C 6.789062 0.5 4.757812 -0.367188 3.15625 -2.109375 Z M 8.15625 -11.40625 C 7.394531 -10.65625 7.015625 -9.691406 7.015625 -8.515625 C 7.015625 -7.335938 7.378906 -6.378906 8.109375 -5.640625 C 8.847656 -4.898438 9.816406 -4.53125 11.015625 -4.53125 C 12.160156 -4.53125 13.101562 -4.90625 13.84375 -5.65625 C 14.59375 -6.40625 14.96875 -7.359375 14.96875 -8.515625 C 14.96875 -9.691406 14.582031 -10.65625 13.8125 -11.40625 C 13.050781 -12.164062 12.117188 -12.546875 11.015625 -12.546875 C 9.878906 -12.546875 8.925781 -12.164062 8.15625 -11.40625 Z M 8.15625 -11.40625 "/></g></g></g><g fill="#7cd3e7" fill-opacity="1"><g transform="translate(618.135886, 403.085598)"><g><path d="M 2 0 L 2 -17.0625 L 7.890625 -17.0625 L 7.890625 -14.609375 L 7.953125 -14.609375 C 7.992188 -14.691406 8.0625 -14.800781 8.15625 -14.9375 C 8.257812 -15.070312 8.476562 -15.304688 8.8125 -15.640625 C 9.144531 -15.972656 9.5 -16.269531 9.875 -16.53125 C 10.257812 -16.800781 10.75 -17.039062 11.34375 -17.25 C 11.9375 -17.457031 12.546875 -17.5625 13.171875 -17.5625 C 13.816406 -17.5625 14.445312 -17.472656 15.0625 -17.296875 C 15.6875 -17.117188 16.144531 -16.941406 16.4375 -16.765625 L 16.90625 -16.5 L 14.4375 -11.515625 C 13.707031 -12.128906 12.6875 -12.4375 11.375 -12.4375 C 10.664062 -12.4375 10.054688 -12.28125 9.546875 -11.96875 C 9.035156 -11.664062 8.675781 -11.289062 8.46875 -10.84375 C 8.257812 -10.394531 8.109375 -10.015625 8.015625 -9.703125 C 7.929688 -9.398438 7.890625 -9.160156 7.890625 -8.984375 L 7.890625 0 Z M 2 0 "/></g></g></g><g fill="#7cd3e7" fill-opacity="1"><g transform="translate(636.564502, 403.085598)"><g><path d="M 3 -17.0625 L 3 -23.421875 L 8.875 -23.421875 L 8.875 -17.0625 L 12.46875 -17.0625 L 12.46875 -12.578125 L 8.875 -12.578125 L 8.875 -7.15625 C 8.875 -5.582031 9.320312 -4.796875 10.21875 -4.796875 C 10.4375 -4.796875 10.664062 -4.835938 10.90625 -4.921875 C 11.15625 -5.015625 11.347656 -5.101562 11.484375 -5.1875 L 11.671875 -5.328125 L 13.140625 -0.5625 C 11.878906 0.144531 10.4375 0.5 8.8125 0.5 C 7.707031 0.5 6.753906 0.304688 5.953125 -0.078125 C 5.148438 -0.472656 4.546875 -0.992188 4.140625 -1.640625 C 3.734375 -2.296875 3.441406 -2.984375 3.265625 -3.703125 C 3.085938 -4.429688 3 -5.203125 3 -6.015625 L 3 -12.578125 L 0.53125 -12.578125 L 0.53125 -17.0625 Z M 3 -17.0625 "/></g></g></g><g fill="#7cd3e7" fill-opacity="1"><g transform="translate(651.567036, 403.085598)"><g/></g></g><g fill="#7cd3e7" fill-opacity="1"><g transform="translate(662.511462, 403.085598)"><g><path d="M 9.421875 -17.5625 C 10.390625 -17.5625 11.347656 -17.453125 12.296875 -17.234375 C 13.253906 -17.015625 13.96875 -16.789062 14.4375 -16.5625 L 15.140625 -16.234375 L 13.203125 -12.375 C 11.867188 -13.082031 10.609375 -13.4375 9.421875 -13.4375 C 8.753906 -13.4375 8.28125 -13.363281 8 -13.21875 C 7.71875 -13.070312 7.578125 -12.800781 7.578125 -12.40625 C 7.578125 -12.320312 7.585938 -12.234375 7.609375 -12.140625 C 7.640625 -12.054688 7.6875 -11.972656 7.75 -11.890625 C 7.8125 -11.816406 7.867188 -11.75 7.921875 -11.6875 C 7.984375 -11.632812 8.082031 -11.570312 8.21875 -11.5 C 8.351562 -11.4375 8.457031 -11.390625 8.53125 -11.359375 C 8.613281 -11.328125 8.742188 -11.273438 8.921875 -11.203125 C 9.097656 -11.140625 9.226562 -11.09375 9.3125 -11.0625 C 9.40625 -11.03125 9.554688 -10.976562 9.765625 -10.90625 C 9.972656 -10.84375 10.132812 -10.800781 10.25 -10.78125 C 10.9375 -10.582031 11.535156 -10.359375 12.046875 -10.109375 C 12.554688 -9.867188 13.09375 -9.535156 13.65625 -9.109375 C 14.21875 -8.691406 14.65625 -8.160156 14.96875 -7.515625 C 15.28125 -6.867188 15.4375 -6.140625 15.4375 -5.328125 C 15.4375 -1.441406 12.742188 0.5 7.359375 0.5 C 6.128906 0.5 4.96875 0.3125 3.875 -0.0625 C 2.78125 -0.4375 1.988281 -0.816406 1.5 -1.203125 L 0.765625 -1.796875 L 3.15625 -5.828125 C 3.332031 -5.671875 3.566406 -5.484375 3.859375 -5.265625 C 4.148438 -5.054688 4.671875 -4.769531 5.421875 -4.40625 C 6.171875 -4.039062 6.828125 -3.859375 7.390625 -3.859375 C 8.609375 -3.859375 9.21875 -4.269531 9.21875 -5.09375 C 9.21875 -5.46875 9.0625 -5.757812 8.75 -5.96875 C 8.4375 -6.175781 7.90625 -6.410156 7.15625 -6.671875 C 6.414062 -6.941406 5.835938 -7.191406 5.421875 -7.421875 C 4.359375 -7.972656 3.515625 -8.597656 2.890625 -9.296875 C 2.273438 -9.992188 1.96875 -10.921875 1.96875 -12.078125 C 1.96875 -13.804688 2.632812 -15.148438 3.96875 -16.109375 C 5.3125 -17.078125 7.128906 -17.5625 9.421875 -17.5625 Z M 9.421875 -17.5625 "/></g></g></g><g fill="#7cd3e7" fill-opacity="1"><g transform="translate(680.740485, 403.085598)"><g><path d="M 19.265625 -7.71875 L 6.890625 -7.71875 C 6.890625 -6.519531 7.273438 -5.628906 8.046875 -5.046875 C 8.828125 -4.472656 9.671875 -4.1875 10.578125 -4.1875 C 11.535156 -4.1875 12.289062 -4.3125 12.84375 -4.5625 C 13.394531 -4.820312 14.023438 -5.332031 14.734375 -6.09375 L 19 -3.953125 C 17.21875 -0.984375 14.265625 0.5 10.140625 0.5 C 7.566406 0.5 5.359375 -0.378906 3.515625 -2.140625 C 1.679688 -3.910156 0.765625 -6.035156 0.765625 -8.515625 C 0.765625 -10.992188 1.679688 -13.117188 3.515625 -14.890625 C 5.359375 -16.671875 7.566406 -17.5625 10.140625 -17.5625 C 12.847656 -17.5625 15.050781 -16.78125 16.75 -15.21875 C 18.445312 -13.65625 19.296875 -11.421875 19.296875 -8.515625 C 19.296875 -8.117188 19.285156 -7.851562 19.265625 -7.71875 Z M 7.046875 -10.984375 L 13.546875 -10.984375 C 13.410156 -11.867188 13.054688 -12.546875 12.484375 -13.015625 C 11.921875 -13.492188 11.195312 -13.734375 10.3125 -13.734375 C 9.332031 -13.734375 8.554688 -13.476562 7.984375 -12.96875 C 7.410156 -12.457031 7.097656 -11.796875 7.046875 -10.984375 Z M 7.046875 -10.984375 "/></g></g></g><g fill="#7cd3e7" fill-opacity="1"><g transform="translate(702.661704, 403.085598)"><g><path d="M 2 0 L 2 -17.0625 L 7.890625 -17.0625 L 7.890625 -14.609375 L 7.953125 -14.609375 C 7.992188 -14.691406 8.0625 -14.800781 8.15625 -14.9375 C 8.257812 -15.070312 8.476562 -15.304688 8.8125 -15.640625 C 9.144531 -15.972656 9.5 -16.269531 9.875 -16.53125 C 10.257812 -16.800781 10.75 -17.039062 11.34375 -17.25 C 11.9375 -17.457031 12.546875 -17.5625 13.171875 -17.5625 C 13.816406 -17.5625 14.445312 -17.472656 15.0625 -17.296875 C 15.6875 -17.117188 16.144531 -16.941406 16.4375 -16.765625 L 16.90625 -16.5 L 14.4375 -11.515625 C 13.707031 -12.128906 12.6875 -12.4375 11.375 -12.4375 C 10.664062 -12.4375 10.054688 -12.28125 9.546875 -11.96875 C 9.035156 -11.664062 8.675781 -11.289062 8.46875 -10.84375 C 8.257812 -10.394531 8.109375 -10.015625 8.015625 -9.703125 C 7.929688 -9.398438 7.890625 -9.160156 7.890625 -8.984375 L 7.890625 0 Z M 2 0 "/></g></g></g><g fill="#7cd3e7" fill-opacity="1"><g transform="translate(721.09032, 403.085598)"><g><path d="M 2.5625 -26.578125 C 3.25 -27.265625 4.066406 -27.609375 5.015625 -27.609375 C 5.972656 -27.609375 6.796875 -27.265625 7.484375 -26.578125 C 8.171875 -25.890625 8.515625 -25.066406 8.515625 -24.109375 C 8.515625 -23.160156 8.171875 -22.34375 7.484375 -21.65625 C 6.796875 -20.96875 5.972656 -20.625 5.015625 -20.625 C 4.066406 -20.625 3.25 -20.96875 2.5625 -21.65625 C 1.875 -22.34375 1.53125 -23.160156 1.53125 -24.109375 C 1.53125 -25.066406 1.875 -25.890625 2.5625 -26.578125 Z M 2 -17.0625 L 2 0 L 7.890625 0 L 7.890625 -17.0625 Z M 2 -17.0625 "/></g></g></g><g fill="#7cd3e7" fill-opacity="1"><g transform="translate(732.99938, 403.085598)"><g><path d="M 19.265625 -7.71875 L 6.890625 -7.71875 C 6.890625 -6.519531 7.273438 -5.628906 8.046875 -5.046875 C 8.828125 -4.472656 9.671875 -4.1875 10.578125 -4.1875 C 11.535156 -4.1875 12.289062 -4.3125 12.84375 -4.5625 C 13.394531 -4.820312 14.023438 -5.332031 14.734375 -6.09375 L 19 -3.953125 C 17.21875 -0.984375 14.265625 0.5 10.140625 0.5 C 7.566406 0.5 5.359375 -0.378906 3.515625 -2.140625 C 1.679688 -3.910156 0.765625 -6.035156 0.765625 -8.515625 C 0.765625 -10.992188 1.679688 -13.117188 3.515625 -14.890625 C 5.359375 -16.671875 7.566406 -17.5625 10.140625 -17.5625 C 12.847656 -17.5625 15.050781 -16.78125 16.75 -15.21875 C 18.445312 -13.65625 19.296875 -11.421875 19.296875 -8.515625 C 19.296875 -8.117188 19.285156 -7.851562 19.265625 -7.71875 Z M 7.046875 -10.984375 L 13.546875 -10.984375 C 13.410156 -11.867188 13.054688 -12.546875 12.484375 -13.015625 C 11.921875 -13.492188 11.195312 -13.734375 10.3125 -13.734375 C 9.332031 -13.734375 8.554688 -13.476562 7.984375 -12.96875 C 7.410156 -12.457031 7.097656 -11.796875 7.046875 -10.984375 Z M 7.046875 -10.984375 "/></g></g></g><g fill="#7cd3e7" fill-opacity="1"><g transform="translate(754.920599, 403.085598)"><g><path d="M 9.421875 -17.5625 C 10.390625 -17.5625 11.347656 -17.453125 12.296875 -17.234375 C 13.253906 -17.015625 13.96875 -16.789062 14.4375 -16.5625 L 15.140625 -16.234375 L 13.203125 -12.375 C 11.867188 -13.082031 10.609375 -13.4375 9.421875 -13.4375 C 8.753906 -13.4375 8.28125 -13.363281 8 -13.21875 C 7.71875 -13.070312 7.578125 -12.800781 7.578125 -12.40625 C 7.578125 -12.320312 7.585938 -12.234375 7.609375 -12.140625 C 7.640625 -12.054688 7.6875 -11.972656 7.75 -11.890625 C 7.8125 -11.816406 7.867188 -11.75 7.921875 -11.6875 C 7.984375 -11.632812 8.082031 -11.570312 8.21875 -11.5 C 8.351562 -11.4375 8.457031 -11.390625 8.53125 -11.359375 C 8.613281 -11.328125 8.742188 -11.273438 8.921875 -11.203125 C 9.097656 -11.140625 9.226562 -11.09375 9.3125 -11.0625 C 9.40625 -11.03125 9.554688 -10.976562 9.765625 -10.90625 C 9.972656 -10.84375 10.132812 -10.800781 10.25 -10.78125 C 10.9375 -10.582031 11.535156 -10.359375 12.046875 -10.109375 C 12.554688 -9.867188 13.09375 -9.535156 13.65625 -9.109375 C 14.21875 -8.691406 14.65625 -8.160156 14.96875 -7.515625 C 15.28125 -6.867188 15.4375 -6.140625 15.4375 -5.328125 C 15.4375 -1.441406 12.742188 0.5 7.359375 0.5 C 6.128906 0.5 4.96875 0.3125 3.875 -0.0625 C 2.78125 -0.4375 1.988281 -0.816406 1.5 -1.203125 L 0.765625 -1.796875 L 3.15625 -5.828125 C 3.332031 -5.671875 3.566406 -5.484375 3.859375 -5.265625 C 4.148438 -5.054688 4.671875 -4.769531 5.421875 -4.40625 C 6.171875 -4.039062 6.828125 -3.859375 7.390625 -3.859375 C 8.609375 -3.859375 9.21875 -4.269531 9.21875 -5.09375 C 9.21875 -5.46875 9.0625 -5.757812 8.75 -5.96875 C 8.4375 -6.175781 7.90625 -6.410156 7.15625 -6.671875 C 6.414062 -6.941406 5.835938 -7.191406 5.421875 -7.421875 C 4.359375 -7.972656 3.515625 -8.597656 2.890625 -9.296875 C 2.273438 -9.992188 1.96875 -10.921875 1.96875 -12.078125 C 1.96875 -13.804688 2.632812 -15.148438 3.96875 -16.109375 C 5.3125 -17.078125 7.128906 -17.5625 9.421875 -17.5625 Z M 9.421875 -17.5625 "/></g></g></g><g fill="#ff3131" fill-opacity="1"><g transform="translate(222.355907, 336.649915)"><g><path d="M 5.21875 0 L 5.21875 -44.6875 L 20.640625 -44.6875 L 20.640625 -39.984375 L 20.8125 -39.984375 C 24.820312 -43.992188 29.09375 -46 33.625 -46 C 36.875 -46 39.921875 -45.328125 42.765625 -43.984375 C 45.609375 -42.648438 47.757812 -40.59375 49.21875 -37.8125 C 53.75 -43.269531 58.6875 -46 64.03125 -46 C 68.789062 -46 72.882812 -44.660156 76.3125 -41.984375 C 79.738281 -39.316406 81.453125 -35.132812 81.453125 -29.4375 L 81.453125 0 L 66.03125 0 L 66.03125 -25.265625 C 66.03125 -27.640625 65.375 -29.625 64.0625 -31.21875 C 62.757812 -32.820312 60.800781 -33.625 58.1875 -33.625 C 55.925781 -33.625 54.195312 -32.941406 53 -31.578125 C 51.8125 -30.210938 51.160156 -28.570312 51.046875 -26.65625 L 51.046875 0 L 35.625 0 L 35.625 -25.265625 C 35.625 -27.640625 34.96875 -29.625 33.65625 -31.21875 C 32.351562 -32.820312 30.394531 -33.625 27.78125 -33.625 C 25.40625 -33.625 23.617188 -32.882812 22.421875 -31.40625 C 21.234375 -29.925781 20.640625 -28.164062 20.640625 -26.125 L 20.640625 0 Z M 5.21875 0 "/></g></g></g><g fill="#ff3131" fill-opacity="1"><g transform="translate(312.251958, 336.649915)"><g><path d="M 51.21875 -39.15625 C 55.394531 -34.59375 57.484375 -29 57.484375 -22.375 C 57.484375 -15.757812 55.394531 -10.15625 51.21875 -5.5625 C 47.039062 -0.976562 41.726562 1.3125 35.28125 1.3125 C 29.351562 1.3125 24.472656 -0.546875 20.640625 -4.265625 L 20.640625 22.640625 L 5.21875 22.640625 L 5.21875 -44.6875 L 20.46875 -44.6875 L 20.46875 -39.640625 L 20.640625 -39.640625 C 24.472656 -43.878906 29.351562 -46 35.28125 -46 C 41.726562 -46 47.039062 -43.71875 51.21875 -39.15625 Z M 38.109375 -14.796875 C 40.109375 -16.773438 41.109375 -19.300781 41.109375 -22.375 C 41.109375 -25.457031 40.148438 -27.972656 38.234375 -29.921875 C 36.316406 -31.867188 33.789062 -32.84375 30.65625 -32.84375 C 27.632812 -32.84375 25.148438 -31.851562 23.203125 -29.875 C 21.265625 -27.90625 20.296875 -25.410156 20.296875 -22.390625 C 20.296875 -19.304688 21.296875 -16.773438 23.296875 -14.796875 C 25.304688 -12.828125 27.757812 -11.84375 30.65625 -11.84375 C 33.625 -11.84375 36.109375 -12.828125 38.109375 -14.796875 Z M 38.109375 -14.796875 "/></g></g></g><g fill="#ff3131" fill-opacity="1"><g transform="translate(375.8414, 336.649915)"><g><path d="M 5.21875 0 L 5.21875 -44.6875 L 20.640625 -44.6875 L 20.640625 -38.234375 L 20.8125 -38.234375 C 20.9375 -38.472656 21.128906 -38.765625 21.390625 -39.109375 C 21.648438 -39.460938 22.210938 -40.070312 23.078125 -40.9375 C 23.953125 -41.8125 24.882812 -42.597656 25.875 -43.296875 C 26.863281 -43.992188 28.140625 -44.617188 29.703125 -45.171875 C 31.273438 -45.722656 32.875 -46 34.5 -46 C 36.175781 -46 37.828125 -45.765625 39.453125 -45.296875 C 41.085938 -44.828125 42.28125 -44.363281 43.03125 -43.90625 L 44.25 -43.203125 L 37.8125 -30.140625 C 35.894531 -31.765625 33.222656 -32.578125 29.796875 -32.578125 C 27.929688 -32.578125 26.332031 -32.171875 25 -31.359375 C 23.664062 -30.546875 22.722656 -29.554688 22.171875 -28.390625 C 21.617188 -27.234375 21.222656 -26.25 20.984375 -25.4375 C 20.753906 -24.625 20.640625 -23.984375 20.640625 -23.515625 L 20.640625 0 Z M 5.21875 0 "/></g></g></g><g fill="#ff3131" fill-opacity="1"><g transform="translate(423.315862, 336.649915)"><g><path d="M 6.703125 -69.59375 C 8.503906 -71.394531 10.65625 -72.296875 13.15625 -72.296875 C 15.65625 -72.296875 17.800781 -71.394531 19.59375 -69.59375 C 21.394531 -67.800781 22.296875 -65.65625 22.296875 -63.15625 C 22.296875 -60.65625 21.394531 -58.503906 19.59375 -56.703125 C 17.800781 -54.898438 15.65625 -54 13.15625 -54 C 10.65625 -54 8.503906 -54.898438 6.703125 -56.703125 C 4.898438 -58.503906 4 -60.65625 4 -63.15625 C 4 -65.65625 4.898438 -67.800781 6.703125 -69.59375 Z M 5.21875 -44.6875 L 5.21875 0 L 20.640625 0 L 20.640625 -44.6875 Z M 5.21875 -44.6875 "/></g></g></g><g fill="#ff3131" fill-opacity="1"><g transform="translate(453.717148, 336.649915)"><g><path d="M 29 -33.359375 C 26.101562 -33.359375 23.609375 -32.285156 21.515625 -30.140625 C 19.421875 -27.992188 18.375 -25.410156 18.375 -22.390625 C 18.375 -19.304688 19.421875 -16.691406 21.515625 -14.546875 C 23.609375 -12.398438 26.101562 -11.328125 29 -11.328125 C 30.394531 -11.328125 31.71875 -11.5 32.96875 -11.84375 C 34.21875 -12.195312 35.132812 -12.546875 35.71875 -12.890625 L 36.5 -13.421875 L 41.71875 -2.703125 C 41.3125 -2.410156 40.742188 -2.046875 40.015625 -1.609375 C 39.296875 -1.171875 37.644531 -0.578125 35.0625 0.171875 C 32.476562 0.929688 29.707031 1.3125 26.75 1.3125 C 20.1875 1.3125 14.421875 -0.992188 9.453125 -5.609375 C 4.484375 -10.234375 2 -15.769531 2 -22.21875 C 2 -28.71875 4.484375 -34.304688 9.453125 -38.984375 C 14.421875 -43.660156 20.1875 -46 26.75 -46 C 29.707031 -46 32.429688 -45.648438 34.921875 -44.953125 C 37.421875 -44.253906 39.195312 -43.554688 40.25 -42.859375 L 41.71875 -41.8125 L 36.5 -31.265625 C 34.582031 -32.660156 32.082031 -33.359375 29 -33.359375 Z M 29 -33.359375 "/></g></g></g><g fill="#ff3131" fill-opacity="1"><g transform="translate(500.581844, 336.649915)"><g><path d="M 50.4375 -20.203125 L 18.03125 -20.203125 C 18.03125 -17.066406 19.046875 -14.742188 21.078125 -13.234375 C 23.109375 -11.722656 25.316406 -10.96875 27.703125 -10.96875 C 30.203125 -10.96875 32.175781 -11.300781 33.625 -11.96875 C 35.070312 -12.644531 36.726562 -13.96875 38.59375 -15.9375 L 49.734375 -10.359375 C 45.085938 -2.578125 37.363281 1.3125 26.5625 1.3125 C 19.832031 1.3125 14.054688 -0.992188 9.234375 -5.609375 C 4.410156 -10.234375 2 -15.796875 2 -22.296875 C 2 -28.804688 4.410156 -34.382812 9.234375 -39.03125 C 14.054688 -43.675781 19.832031 -46 26.5625 -46 C 33.65625 -46 39.421875 -43.953125 43.859375 -39.859375 C 48.296875 -35.765625 50.515625 -29.910156 50.515625 -22.296875 C 50.515625 -21.253906 50.488281 -20.554688 50.4375 -20.203125 Z M 18.46875 -28.75 L 35.453125 -28.75 C 35.109375 -31.070312 34.191406 -32.851562 32.703125 -34.09375 C 31.222656 -35.34375 29.320312 -35.96875 27 -35.96875 C 24.445312 -35.96875 22.414062 -35.300781 20.90625 -33.96875 C 19.394531 -32.632812 18.582031 -30.894531 18.46875 -28.75 Z M 18.46875 -28.75 "/></g></g></g><g fill="#44c0dc" fill-opacity="1"><g transform="translate(557.218956, 336.649915)"><g><path d="M 29 -33.359375 C 26.101562 -33.359375 23.609375 -32.285156 21.515625 -30.140625 C 19.421875 -27.992188 18.375 -25.410156 18.375 -22.390625 C 18.375 -19.304688 19.421875 -16.691406 21.515625 -14.546875 C 23.609375 -12.398438 26.101562 -11.328125 29 -11.328125 C 30.394531 -11.328125 31.71875 -11.5 32.96875 -11.84375 C 34.21875 -12.195312 35.132812 -12.546875 35.71875 -12.890625 L 36.5 -13.421875 L 41.71875 -2.703125 C 41.3125 -2.410156 40.742188 -2.046875 40.015625 -1.609375 C 39.296875 -1.171875 37.644531 -0.578125 35.0625 0.171875 C 32.476562 0.929688 29.707031 1.3125 26.75 1.3125 C 20.1875 1.3125 14.421875 -0.992188 9.453125 -5.609375 C 4.484375 -10.234375 2 -15.769531 2 -22.21875 C 2 -28.71875 4.484375 -34.304688 9.453125 -38.984375 C 14.421875 -43.660156 20.1875 -46 26.75 -46 C 29.707031 -46 32.429688 -45.648438 34.921875 -44.953125 C 37.421875 -44.253906 39.195312 -43.554688 40.25 -42.859375 L 41.71875 -41.8125 L 36.5 -31.265625 C 34.582031 -32.660156 32.082031 -33.359375 29 -33.359375 Z M 29 -33.359375 "/></g></g></g><g fill="#44c0dc" fill-opacity="1"><g transform="translate(604.083661, 336.649915)"><g><path d="M 5.21875 0 L 5.21875 -74.90625 L 20.640625 -74.90625 L 20.640625 -39.984375 L 20.8125 -39.984375 C 24.820312 -43.992188 29.09375 -46 33.625 -46 C 35.832031 -46 38.023438 -45.707031 40.203125 -45.125 C 42.378906 -44.539062 44.46875 -43.640625 46.46875 -42.421875 C 48.476562 -41.203125 50.101562 -39.472656 51.34375 -37.234375 C 52.59375 -35.003906 53.21875 -32.40625 53.21875 -29.4375 L 53.21875 0 L 37.8125 0 L 37.8125 -25.265625 C 37.8125 -27.585938 37.066406 -29.617188 35.578125 -31.359375 C 34.097656 -33.097656 32.171875 -33.96875 29.796875 -33.96875 C 27.472656 -33.96875 25.363281 -33.066406 23.46875 -31.265625 C 21.582031 -29.472656 20.640625 -27.472656 20.640625 -25.265625 L 20.640625 0 Z M 5.21875 0 "/></g></g></g><g fill="#44c0dc" fill-opacity="1"><g transform="translate(665.756713, 336.649915)"><g><path d="M 50.4375 -20.203125 L 18.03125 -20.203125 C 18.03125 -17.066406 19.046875 -14.742188 21.078125 -13.234375 C 23.109375 -11.722656 25.316406 -10.96875 27.703125 -10.96875 C 30.203125 -10.96875 32.175781 -11.300781 33.625 -11.96875 C 35.070312 -12.644531 36.726562 -13.96875 38.59375 -15.9375 L 49.734375 -10.359375 C 45.085938 -2.578125 37.363281 1.3125 26.5625 1.3125 C 19.832031 1.3125 14.054688 -0.992188 9.234375 -5.609375 C 4.410156 -10.234375 2 -15.796875 2 -22.296875 C 2 -28.804688 4.410156 -34.382812 9.234375 -39.03125 C 14.054688 -43.675781 19.832031 -46 26.5625 -46 C 33.65625 -46 39.421875 -43.953125 43.859375 -39.859375 C 48.296875 -35.765625 50.515625 -29.910156 50.515625 -22.296875 C 50.515625 -21.253906 50.488281 -20.554688 50.4375 -20.203125 Z M 18.46875 -28.75 L 35.453125 -28.75 C 35.109375 -31.070312 34.191406 -32.851562 32.703125 -34.09375 C 31.222656 -35.34375 29.320312 -35.96875 27 -35.96875 C 24.445312 -35.96875 22.414062 -35.300781 20.90625 -33.96875 C 19.394531 -32.632812 18.582031 -30.894531 18.46875 -28.75 Z M 18.46875 -28.75 "/></g></g></g><g fill="#44c0dc" fill-opacity="1"><g transform="translate(722.377501, 336.649915)"><g><path d="M 29 -33.359375 C 26.101562 -33.359375 23.609375 -32.285156 21.515625 -30.140625 C 19.421875 -27.992188 18.375 -25.410156 18.375 -22.390625 C 18.375 -19.304688 19.421875 -16.691406 21.515625 -14.546875 C 23.609375 -12.398438 26.101562 -11.328125 29 -11.328125 C 30.394531 -11.328125 31.71875 -11.5 32.96875 -11.84375 C 34.21875 -12.195312 35.132812 -12.546875 35.71875 -12.890625 L 36.5 -13.421875 L 41.71875 -2.703125 C 41.3125 -2.410156 40.742188 -2.046875 40.015625 -1.609375 C 39.296875 -1.171875 37.644531 -0.578125 35.0625 0.171875 C 32.476562 0.929688 29.707031 1.3125 26.75 1.3125 C 20.1875 1.3125 14.421875 -0.992188 9.453125 -5.609375 C 4.484375 -10.234375 2 -15.769531 2 -22.21875 C 2 -28.71875 4.484375 -34.304688 9.453125 -38.984375 C 14.421875 -43.660156 20.1875 -46 26.75 -46 C 29.707031 -46 32.429688 -45.648438 34.921875 -44.953125 C 37.421875 -44.253906 39.195312 -43.554688 40.25 -42.859375 L 41.71875 -41.8125 L 36.5 -31.265625 C 34.582031 -32.660156 32.082031 -33.359375 29 -33.359375 Z M 29 -33.359375 "/></g></g></g><g fill="#44c0dc" fill-opacity="1"><g transform="translate(769.242196, 336.649915)"><g><path d="M 56.265625 -44.6875 L 35.015625 -23.34375 L 58.359375 0 L 38.5 0 L 20.640625 -17.859375 L 20.640625 0 L 5.21875 0 L 5.21875 -74.90625 L 20.640625 -74.90625 L 20.640625 -29.09375 L 36.234375 -44.6875 Z M 56.265625 -44.6875 "/></g></g></g><g fill="#44c0dc" fill-opacity="1"><g transform="translate(829.608653, 336.649915)"><g><path d="M 50.4375 -20.203125 L 18.03125 -20.203125 C 18.03125 -17.066406 19.046875 -14.742188 21.078125 -13.234375 C 23.109375 -11.722656 25.316406 -10.96875 27.703125 -10.96875 C 30.203125 -10.96875 32.175781 -11.300781 33.625 -11.96875 C 35.070312 -12.644531 36.726562 -13.96875 38.59375 -15.9375 L 49.734375 -10.359375 C 45.085938 -2.578125 37.363281 1.3125 26.5625 1.3125 C 19.832031 1.3125 14.054688 -0.992188 9.234375 -5.609375 C 4.410156 -10.234375 2 -15.796875 2 -22.296875 C 2 -28.804688 4.410156 -34.382812 9.234375 -39.03125 C 14.054688 -43.675781 19.832031 -46 26.5625 -46 C 33.65625 -46 39.421875 -43.953125 43.859375 -39.859375 C 48.296875 -35.765625 50.515625 -29.910156 50.515625 -22.296875 C 50.515625 -21.253906 50.488281 -20.554688 50.4375 -20.203125 Z M 18.46875 -28.75 L 35.453125 -28.75 C 35.109375 -31.070312 34.191406 -32.851562 32.703125 -34.09375 C 31.222656 -35.34375 29.320312 -35.96875 27 -35.96875 C 24.445312 -35.96875 22.414062 -35.300781 20.90625 -33.96875 C 19.394531 -32.632812 18.582031 -30.894531 18.46875 -28.75 Z M 18.46875 -28.75 "/></g></g></g><g fill="#44c0dc" fill-opacity="1"><g transform="translate(886.229459, 336.649915)"><g><path d="M 5.21875 0 L 5.21875 -44.6875 L 20.640625 -44.6875 L 20.640625 -38.234375 L 20.8125 -38.234375 C 20.9375 -38.472656 21.128906 -38.765625 21.390625 -39.109375 C 21.648438 -39.460938 22.210938 -40.070312 23.078125 -40.9375 C 23.953125 -41.8125 24.882812 -42.597656 25.875 -43.296875 C 26.863281 -43.992188 28.140625 -44.617188 29.703125 -45.171875 C 31.273438 -45.722656 32.875 -46 34.5 -46 C 36.175781 -46 37.828125 -45.765625 39.453125 -45.296875 C 41.085938 -44.828125 42.28125 -44.363281 43.03125 -43.90625 L 44.25 -43.203125 L 37.8125 -30.140625 C 35.894531 -31.765625 33.222656 -32.578125 29.796875 -32.578125 C 27.929688 -32.578125 26.332031 -32.171875 25 -31.359375 C 23.664062 -30.546875 22.722656 -29.554688 22.171875 -28.390625 C 21.617188 -27.234375 21.222656 -26.25 20.984375 -25.4375 C 20.753906 -24.625 20.640625 -23.984375 20.640625 -23.515625 L 20.640625 0 Z M 5.21875 0 "/></g></g></g></svg>